<svg version="1" xmlns="http://www.w3.org/2000/svg" width="280" height="280" viewBox="0 0 210.000000 210.000000"><path d="M78.5 9.9c-.4.7-.7 4.1-.6 7.7.1 5.1.5 6.8 2.2 8.5 1.9 1.9 2.2 2 3.9.4 1.4-1.3 1.6-2.2 1-3.8-.5-1.2-1.4-4-1.9-6.2-1.3-5.2-3.5-8.3-4.6-6.6zM129 25.3c3 3.2 5.6 5.7 5.8 5.7 1 0-5.6-7.4-8.2-9.2-2.1-1.4-1.3-.3 2.4 3.5zM60.9 24.7l-2.4 2.8 2.8-2.4c2.5-2.3 3.2-3.1 2.4-3.1-.2 0-1.4 1.2-2.8 2.7zM55.4 41.6l-3.9 3.5 4.3-3.2c3.8-3 4.8-3.9 3.9-3.9-.2 0-2.1 1.6-4.3 3.6zM86 38.2c0 .4.5 1.9 1.2 3.5.6 1.5 1.1 3.7 1 4.8-.1 1.7 0 1.7.4.2.5-1.5.8-1.6 2.2-.5 1.6 1.2 1.6 1.1.1-.7-.9-1.1-2.4-3.4-3.2-5-.9-1.7-1.6-2.7-1.7-2.3zM35.5 44.2c.9 3.1 5.1 10.2 6.7 11.5 2.5 2 4.8 1.1 4.8-1.8 0-1.9-1.3-4-4.7-7.3-5.3-5.1-7.8-6-6.8-2.4zM103.1 49c0 .8.6 2.6 1.5 4l1.5 2.5-.7-2.5c-.3-1.4-1-3.2-1.5-4-.7-1.3-.8-1.3-.8 0zM95.8 52.7c.7.3 1.6.2 1.9-.1.4-.3-.2-.6-1.3-.5-1.1 0-1.4.3-.6.6zM117.1 53c0 .8.7 3.1 1.5 5l1.4 3.5-.6-3.5c-.7-4-2.4-7.6-2.3-5zM145.7 55.1c.7 3.6 3.1 9.9 3.7 9.9.5 0-3.3-12.2-3.9-12.9-.3-.2-.2 1.1.2 3zM88.4 56.6c-1.8 1.4-1.8 1.5.4.4 1.2-.6 2.2-1.3 2.2-1.5 0-.8-.5-.6-2.6 1.1zM43.7 60.7c-.4.3-.6 2.5-.6 4.7l.2 4.1.7-4.5c.8-4.8.7-5.4-.3-4.3zM105.6 60.7c.5.5 1.2 1.2 1.6 1.8.4.6.8.2.8-.8 0-.9-.7-1.7-1.7-1.7-.9 0-1.2.3-.7.7zM95.5 64.1c-2.2 1.2-4.9 2.9-5.9 3.8-1.8 1.5-1.9 1.5-1.3-.2.9-2.5.2-2.1-1.8.9-.9 1.5-1.2 2.3-.6 2 .7-.5 1.1.2 1.1 1.6 0 2.1.2 2 1.9-.8 2.4-4 4.1-5.1 4.1-2.7 0 2.3 4.8 3 5.6.8.4-.8 1-1.2 1.5-.9.5.3.9-.2.9-1s-.5-1.8-1.1-2.2c-.8-.5-.6-1 .5-1.6 4-2.2 4.1 2.5.1 6.2-1.2 1.1-3.2 2.2-4.4 2.3-1.1.1-2.1.5-2.1 1 0 1.1 3.7-.1 7.8-2.5 3.2-1.9 5-5.7 3.7-7.7-1-1.8-5.7-1.3-10 1zM53.1 67c0 1.9.8 5.4 1.9 7.8 1.7 3.7 1.7 4.4.5 4.8-.8.4-1.5 1.3-1.5 2 0 1.1.5 1 2-.4 1.8-1.6 1.9-2.3 1-4.8-.7-1.6-1.8-5.2-2.5-7.9-1.3-4.7-1.4-4.8-1.4-1.5zM121 66.6c0 .8.5 1.2 1 .9.6-.4.8-1.1.5-1.6-.9-1.4-1.5-1.1-1.5.7zM130 65.4c0 .2.8 1 1.8 1.7 1.5 1.3 1.6 1.2.3-.4s-2.1-2.1-2.1-1.3zM122.7 75.6c.6 6.8 1.1 7.7 1.2 2.4 0-2.5-.3-5.1-.8-5.9-.5-.8-.7.5-.4 3.5zM71.6 77.3c.3 1 .9 1.5 1.2 1.2.3-.3 0-1.1-.7-1.8-1-.9-1.1-.8-.5.6zM42.3 81.5c0 2.7.2 3.8.4 2.2.2-1.5.2-3.7 0-5-.2-1.2-.4 0-.4 2.8zM129.1 82.3c-1.9 2.1-3.9 3.6-4.5 3.4-.8-.3-1.2 2-1.4 7.2-.1 4.2-.5 10.7-.8 14.5-.4 4.6-.3 6.7.4 6.2.6-.3 1.2.1 1.4 1 .2.9.4-4.6.6-12.2.2-13.3.3-14 2.7-16.4l2.5-2.5v3.3c0 1.7.5 3.2 1.1 3.2.7 0 .9-1.2.5-3.6-.5-2.2-.3-4.1.4-4.9.7-.8 1-1.8.8-2.2-.1-.5-1.8.9-3.7 3zM50.1 81.6c0 1.1.3 1.4.6.6.3-.7.2-1.6-.1-1.9-.3-.4-.6.2-.5 1.3zM50.1 85.6c0 1.1.3 1.4.6.6.3-.7.2-1.6-.1-1.9-.3-.4-.6.2-.5 1.3zM65.5 86.1c-3.9 1.1-7.2 6.3-5.5 8.4 2.9 3.5 10-.5 10.6-5.9.3-2.9-1.1-3.6-5.1-2.5zm1.1 4.3c3.1-.8 3 .6-.1 2.8-3.8 2.8-7.5.2-4.3-3 .8-.8 1.4-.9 1.6-.2.2.5 1.5.7 2.8.4zM112.2 88c0 1.9.2 2.7.5 1.7.2-.9.2-2.5 0-3.5-.3-.9-.5-.1-.5 1.8zM150.2 91c0 1.4.2 1.9.5 1.2.2-.6.2-1.8 0-2.5-.3-.6-.5-.1-.5 1.3zM55.1 92.1c.2.7 0 2.8-.4 4.4-.8 3.2 2.5 16 4.5 18 .8.7.9.4.4-1-2.5-7-4.2-15.3-3.5-17.5.4-1.4.7-2.1.8-1.5.1.5 1.3 2.3 2.7 4l2.5 3-2.2-4.3c-2.5-4.7-5.3-7.7-4.8-5.1zM153.2 98c0 1.4.2 1.9.5 1.2.2-.6.2-1.8 0-2.5-.3-.6-.5-.1-.5 1.3zM151 101c0 2.2.3 4 .8 4 .4 0 .6-1.8.4-4-.2-2.2-.6-4-.8-4-.2 0-.4 1.8-.4 4zM41.3 102.5c0 2.2.2 3 .4 1.7.2-1.2.2-3 0-4-.3-.9-.5.1-.4 2.3zM154.2 103c-.1 1.4.3 4.3.7 6.5.6 2.6.9 3.1.9 1.5.1-1.4-.3-4.3-.7-6.5-.6-2.6-.9-3.1-.9-1.5zM62.6 104.3c.3 1 .9 1.5 1.2 1.2.3-.3 0-1.1-.7-1.8-1-.9-1.1-.8-.5.6zM113.9 107c-.7 3.5-.4 4.8.7 3.8.3-.4.4-2.1.2-4l-.3-3.3-.6 3.5zM79.5 106c-.3.5-.1 1 .4 1 .6 0 1.1-.5 1.1-1 0-.6-.2-1-.4-1-.3 0-.8.4-1.1 1z"/><path d="M64 107.8c0 .5 1.1 2.6 2.5 4.6 3.1 4.5 3.1 5.3.3 5.2-1.5-.1-2.4.7-2.8 2.4-.6 2.4-.7 2.4-1.4.3-.7-2.2-3.6-5.2-3.6-3.7 0 1.2 9.7 12.5 10.7 12.5.4 0 .9-.5 1.2-1.2.2-.6-.1-.9-.6-.6-.6.4-1.9-.4-3-1.6-1.6-1.9-2.1-4-1.4-7.4 0-.3 1.1.3 2.4 1.5l2.4 2.2-.1-3.3c-.1-1.9-1.1-4.3-2.4-5.7-1.2-1.3-2.2-2.9-2.2-3.6 0-.7-.4-1.6-1-1.9-.5-.3-1-.2-1 .3zM152.3 113c0 3.6.2 5 .4 3.2.2-1.7.2-4.7 0-6.5-.2-1.7-.4-.3-.4 3.3z"/><path d="M61.3 111.1c-.2 2.3.3 2.5 1 .4.4-.8.3-1.6-.1-1.9-.4-.3-.9.4-.9 1.5zM41.3 111.6c-.3.8-.1 2 .5 2.6.7.7 1 .2.9-1.6-.2-3-.5-3.2-1.4-1zM109 112.1c0 .5.5.7 1 .4.6-.3 1-.8 1-1.1 0-.2-.4-.4-1-.4-.5 0-1 .5-1 1.1zM106.5 115c-.3.5-.1 1 .4 1 .6 0 1.1-.5 1.1-1 0-.6-.2-1-.4-1-.3 0-.8.4-1.1 1zM120.2 120.7c-2.3 10.9-3.8 27.5-2.8 32.4.3 1.9 1.5 4 2.7 4.7 1.8 1.2 1.9 1.1 1-.5-1.4-2.7-2.3-12.9-1.5-18 .5-3.4 1-4.3 2.1-3.8 1.3.4 1.3.2-.1-1.9-1.7-2.6-2.1-7.3-.8-9.2.4-.6 2.1-1.6 3.7-2.2l3-1.2-3.1.5c-2.9.6-3 .5-2.6-3 .6-5.4-.2-4.2-1.6 2.2zM156.1 117.6c0 1.1.3 1.4.6.6.3-.7.2-1.6-.1-1.9-.3-.4-.6.2-.5 1.3zM76 120.8c0 .9.5 2.4 1 3.2.8 1.3 1 1.2 1-.3 0-1.8 1.7-2.2 3.7-.9.7.4 1.4 2.7 1.5 5 .2 2.3.4 4.2.4 4.2.1 0 1.9.7 4 1.5 3.4 1.4 3.7 1.4 2 .1-1-.9-2.3-1.7-2.8-1.8-.5-.2-.6-1.8-.2-3.5.6-2.9.9-3.1 2.6-2.2 1.1.6 2.8.9 3.8.6 1.3-.3 1.6 0 1.3 1.3-.3 1 0 2.1.6 2.4 1.6 1 1.4 2.6-.3 2.6-2.6 0-2.9 2.1-.7 4.3 2 2 2.2 2 3.8.4 1.7-1.6 1.6-1.9-.2-5.3-1.7-3.1-1.7-3.8-.5-4.8 1.5-1.1 2.6-4.6 1.5-4.6-.3 0-1.9.7-3.5 1.5-2.7 1.4-3.3 1.4-5.9 0-1.6-.8-5.2-2.4-8-3.5-4.7-1.8-5.1-1.8-5.1-.2zm20.4 15.7c-.4.8-.7 1.5-.9 1.5-.2 0-.5-.7-.9-1.5-.3-.9 0-1.5.9-1.5s1.2.6.9 1.5zM50 122.4c0 .2.8 1 1.8 1.7 1.5 1.3 1.6 1.2.3-.4s-2.1-2.1-2.1-1.3zM106.5 123.8c-.7.7-.5 15.2.4 18.1.4 1.4.7-1.2.9-6.4.1-4.8.4-9 .7-9.3 1-1 1.9.8 2.6 5.1l.6 4.2.2-5c.1-4.4-.2-5.1-2.4-6.1-1.3-.7-2.6-.9-3-.6zM129.1 125c0 1.4.6 3.8 1.5 5.5 1.5 3.2 1.4 2.3-.6-5-.7-2.8-.8-2.8-.9-.5zM100.8 125.7c.6.2 1.8.2 2.5 0 .6-.3.1-.5-1.3-.5-1.4 0-1.9.2-1.2.5zM60 129c.6 1.1 1.3 2 1.6 2 .2 0 0-.9-.6-2s-1.3-2-1.6-2c-.2 0 0 .9.6 2zM41 130c0 .6.7 1 1.5 1s1.5-.2 1.5-.4-.7-.6-1.5-1c-.8-.3-1.5-.1-1.5.4zM138.8 132.7c.7.3 1.6.2 1.9-.1.4-.3-.2-.6-1.3-.5-1.1 0-1.4.3-.6.6zM148.8 133.7c.6.2 1.8.2 2.5 0 .6-.3.1-.5-1.3-.5-1.4 0-1.9.2-1.2.5zM156.8 134.7c.7.3 1.6.2 1.9-.1.4-.3-.2-.6-1.3-.5-1.1 0-1.4.3-.6.6zM166.2 135.9c1.8 2.1 1.7 21.6-.1 23.4-1 .9-1.2.8-1.1-.8.1-1.1.2-3.5.1-5.3-.1-2.8-.4-3.2-2-2.7-1.5.4-2-.1-2.5-2.8-.6-3.4-.7-3.4-6.9-4-3.4-.3-8.1-1.3-10.4-2.1-2.4-.8-4.3-1.3-4.3-1 0 .3 1.3 1 2.9 1.5 2.6.9 3.1 1.8 4.2 6.7 1.5 7.6 2 8.4 8 12.8 4.5 3.2 5.4 3.6 7.1 2.5 2.5-1.5 2.5-1.6 3.3 3.9.6 4.3.5 4.6-2.9 6.7l-3.4 2.2-4.1-4.4c-4.3-4.7-5.7-5.1-13.3-3.9-2.7.5-4.5 1.6-6.4 4.2-2.4 3.1-2.6 3.7-1.4 5.6 4.1 6.5 6.1 12 6.3 17 .2 4.7-.2 6-3.1 10l-3.3 4.6h20.5c12.9 0 20.7-.4 21.1-1 1.3-2 .7-13.7-.7-16.5-1.1-2.1-1.3-3.5-.5-5.4.7-2.1.2-4.7-2.5-12.9-1.9-5.6-3.1-9.9-2.7-9.5 1.2 1.2 6 14.3 6.9 18.8.5 2.8.8 3.3.9 1.4.1-1.4 1.2-3.6 2.6-4.9 2.8-2.6 3.2-6.5 1-9.4-.8-1.1-1.5-3.8-1.5-6 0-6.5-2.9-21.8-4.9-25.6-1.3-2.5-2.7-3.6-5-4.1-2.9-.6-3.1-.5-1.9 1zM48.1 138.3c.8.7 1.6 3 1.7 5.4.2 2.3.9 6.4 1.6 9.2.7 2.8 1 4.8.6 4.6-.4-.3-1.1 1.7-1.5 4.3-.4 2.6-1.8 8.9-3.1 14.1-1.4 5.2-2.3 9.9-2.1 10.5.2.6 1.4-2.8 2.6-7.4 3.1-11.9 3-11.7 4.1-10 .5.8.6 1.8.3 2.4-.3.5-.1.6.4.3 2.5-1.5 3.1 1.8 1.7 8.8-1.8 9.3-3 30.6-1.5 28.5.6-.8 1.1-4.1 1.1-7.2 0-3.1.5-9.2 1.1-13.5.6-4.3 1.2-8.3 1.2-9 0-.7.3-1 .7-.8.3.2.4 7.4.2 15.9-.3 11-.1 15.6.7 15.6.7 0 1.1-4.3 1.2-13.3 0-11.3.2-12.7 1.2-10 .7 1.7 1.5 3.5 2 3.9.4.4.7 3.5.7 6.9 0 3.5.3 7.7.6 9.4l.7 3.1h21l-.6-3c-.5-2.4 0-3.7 2.4-6.5 3.7-4.2 5.4-4.5 4.5-.9-.4 1.4-.3 2.3.1 2.1 1.1-.7 1 6-.1 7-.5.4-.6.2-.2-.5 1-1.7.1-1.5-1.4.3-1.1 1.3 1.3 1.5 20.4 1.5H132l-.1-6.3c-.1-8.7-1.4-11.7-2.3-5.2-1.2 9.1-2.1 7.5-2.1-3.8 0-13.6-1.4-18.8-6.6-24.6-2.2-2.4-3.7-3.6-3.3-2.6.7 1.6.3 1.7-4.2 1.1-2.7-.4-5.6-.9-6.5-1.2-1.7-.5-2.9-4.5-2.9-9.7 0-2-1-4.1-2.7-5.9-3.5-3.6-7.8-3.7-15.2-.2l-5.5 2.6-2.1-2.6c-1.3-1.6-5.1-3.7-10.5-5.7-4.7-1.6-10.1-4-12-5.1-4.2-2.5-10.4-4.4-7.9-2.5zM135 137.4c0 .2.8 1 1.8 1.7 1.5 1.3 1.6 1.2.3-.4s-2.1-2.1-2.1-1.3z"/><path d="M122 141.4c0 2.1 8.1 17.8 11.2 21.6 2.2 2.7 2.1 2.5-5.5-10.9-1.6-2.9-3.6-6.9-4.3-9-.7-2-1.3-2.8-1.4-1.7zM117 161.9c0 .5.5 1.3 1 1.6.6.3 1 .2 1-.4 0-.5-.4-1.3-1-1.6-.5-.3-1-.2-1 .4zM40.2 173c0 1.4.2 1.9.5 1.2.2-.6.2-1.8 0-2.5-.3-.6-.5-.1-.5 1.3zM38.8 179.5c-.3 1.4-.1 2.5.3 2.5.5 0 .9-1.1.9-2.5s-.2-2.5-.4-2.5-.6 1.1-.8 2.5zM37.2 190.2c-.7 4-1.5 8.4-1.7 9.8-.3 1.4.1.8.9-1.3 1.5-3.6 3.3-15.7 2.4-15.7-.2 0-1 3.3-1.6 7.2zM176.2 191c0 1.4.2 1.9.5 1.2.2-.6.2-1.8 0-2.5-.3-.6-.5-.1-.5 1.3zM176.2 208c0 1.4.2 1.9.5 1.2.2-.6.2-1.8 0-2.5-.3-.6-.5-.1-.5 1.3z"/></svg>